<svg xmlns="http://www.w3.org/2000/svg" fill="none" viewBox="0 0 2000 2000" width="550" height="550">
    <path fill="#101014" d="M437.194 568.001L1328.38 271.723L1560.99 1281.4L739.165 1567.02L437.194 568.001Z"
        class="color101014 svgShape"></path>
    <path fill="#45d89d" d="M361.838 523.564L1253.02 227.286L1485.63 1236.96L663.808 1522.58L361.838 523.564Z"
        class="color36FFD9 svgShape"></path>
    <path fill="#101014"
        d="M393.66 639.708C391.082 639.707 388.589 638.787 386.628 637.114 384.667 635.44 383.366 633.123 382.959 630.577 382.552 628.031 383.066 625.424 384.407 623.223 385.749 621.021 387.831 619.37 390.28 618.565L1275.03 327.293C1276.38 326.844 1277.81 326.666 1279.23 326.77 1280.65 326.873 1282.04 327.255 1283.31 327.895 1284.59 328.534 1285.72 329.418 1286.66 330.496 1287.59 331.574 1288.3 332.825 1288.75 334.178 1289.2 335.531 1289.37 336.958 1289.27 338.38 1289.17 339.801 1288.78 341.188 1288.14 342.462 1287.51 343.735 1286.62 344.871 1285.54 345.803 1284.47 346.735 1283.21 347.445 1281.86 347.894L397.057 639.166C395.962 639.532 394.814 639.715 393.66 639.708zM1237.17 329.642C1235.88 329.635 1234.59 329.397 1233.38 328.937L1159.29 301.252C1157.95 300.752 1156.73 299.995 1155.69 299.023 1154.65 298.051 1153.81 296.883 1153.22 295.587 1152.63 294.291 1152.3 292.891 1152.25 291.468 1152.2 290.044 1152.43 288.625 1152.93 287.292 1153.43 285.958 1154.19 284.736 1155.16 283.695 1156.13 282.654 1157.3 281.814 1158.6 281.224 1159.89 280.634 1161.29 280.306 1162.72 280.257 1164.14 280.208 1165.56 280.44 1166.89 280.94L1240.99 308.625C1243.38 309.506 1245.38 311.202 1246.65 313.415 1247.92 315.628 1248.36 318.217 1247.91 320.726 1247.46 323.235 1246.13 325.504 1244.17 327.134 1242.21 328.765 1239.74 329.652 1237.19 329.642H1237.17z"
        class="color101014 svgShape"></path>
    <path fill="#101014"
        d="M1180.08 352.195C1178.43 352.2 1176.8 351.823 1175.31 351.092 1172.74 349.827 1170.78 347.597 1169.85 344.888 1168.92 342.18 1169.1 339.213 1170.34 336.635L1205.96 263.898C1207.25 261.355 1209.49 259.421 1212.2 258.518 1214.9 257.614 1217.85 257.812 1220.41 259.069 1222.97 260.326 1224.94 262.542 1225.87 265.235 1226.81 267.928 1226.65 270.883 1225.43 273.458L1189.77 346.123C1188.88 347.936 1187.5 349.466 1185.79 350.539 1184.08 351.612 1182.1 352.185 1180.08 352.195zM453.224 585.603C446.737 585.603 440.396 583.679 435.002 580.075 429.608 576.471 425.404 571.349 422.922 565.355 420.439 559.362 419.789 552.767 421.055 546.405 422.321 540.042 425.444 534.198 430.031 529.611 434.619 525.024 440.463 521.9 446.825 520.635 453.188 519.369 459.783 520.019 465.776 522.501 471.769 524.984 476.892 529.188 480.496 534.581 484.1 539.975 486.023 546.317 486.023 552.804 486.014 561.5 482.555 569.837 476.406 575.986 470.257 582.135 461.92 585.593 453.224 585.603zM453.224 541.69C451.026 541.69 448.877 542.342 447.05 543.563 445.222 544.784 443.797 546.52 442.956 548.551 442.115 550.581 441.895 552.816 442.324 554.972 442.753 557.128 443.811 559.108 445.365 560.662 446.92 562.217 448.9 563.275 451.056 563.704 453.212 564.133 455.446 563.913 457.477 563.072 459.508 562.23 461.244 560.806 462.465 558.978 463.686 557.151 464.338 555.002 464.338 552.804 464.338 551.344 464.05 549.899 463.492 548.551 462.933 547.202 462.115 545.977 461.083 544.945 460.051 543.913 458.826 543.094 457.477 542.536 456.129 541.977 454.684 541.69 453.224 541.69zM527.116 559.996C520.629 559.996 514.287 558.072 508.893 554.468 503.5 550.864 499.296 545.741 496.813 539.748 494.331 533.755 493.681 527.16 494.947 520.797 496.212 514.435 499.336 508.591 503.923 504.004 508.51 499.417 514.354 496.293 520.717 495.027 527.079 493.762 533.674 494.411 539.667 496.894 545.661 499.376 550.783 503.58 554.387 508.974 557.991 514.368 559.915 520.709 559.915 527.196 559.905 535.892 556.447 544.229 550.298 550.378 544.149 556.527 535.812 559.986 527.116 559.996zM527.116 516.101C524.917 516.101 522.767 516.753 520.939 517.975 519.111 519.197 517.687 520.934 516.846 522.965 516.006 524.997 515.787 527.233 516.217 529.389 516.647 531.546 517.707 533.526 519.263 535.079 520.82 536.633 522.802 537.69 524.959 538.117 527.116 538.544 529.351 538.321 531.381 537.477 533.412 536.633 535.146 535.206 536.365 533.376 537.584 531.546 538.233 529.395 538.23 527.196 538.23 525.738 537.942 524.293 537.383 522.946 536.824 521.599 536.006 520.375 534.973 519.344 533.941 518.313 532.716 517.497 531.367 516.94 530.019 516.383 528.574 516.098 527.116 516.101zM599.546 534.244C593.059 534.244 586.716 532.32 581.322 528.715 575.928 525.11 571.724 519.987 569.242 513.992 566.76 507.998 566.112 501.402 567.379 495.039 568.646 488.676 571.771 482.832 576.36 478.246 580.949 473.659 586.795 470.537 593.159 469.274 599.522 468.01 606.118 468.662 612.111 471.147 618.104 473.633 623.225 477.839 626.827 483.236 630.429 488.632 632.349 494.975 632.346 501.463 632.336 510.157 628.877 518.492 622.727 524.639 616.578 530.785 608.241 534.239 599.546 534.244zM599.546 490.349C597.348 490.349 595.2 491.001 593.372 492.222 591.544 493.443 590.12 495.179 589.279 497.21 588.437 499.241 588.217 501.475 588.646 503.631 589.075 505.787 590.133 507.767 591.688 509.322 593.242 510.876 595.222 511.934 597.378 512.363 599.534 512.792 601.769 512.572 603.799 511.731 605.83 510.89 607.566 509.465 608.787 507.637 610.008 505.81 610.66 503.661 610.66 501.463 610.66 498.515 609.489 495.688 607.405 493.604 605.321 491.52 602.494 490.349 599.546 490.349z"
        class="color101014 svgShape"></path>
    <path fill="#ffffff"
        d="M625.84 745.715C648.665 745.715 667.169 727.211 667.169 704.386 667.169 681.56 648.665 663.057 625.84 663.057 603.014 663.057 584.511 681.56 584.511 704.386 584.511 727.211 603.014 745.715 625.84 745.715zM601.37 864.912C598.348 855.624 597.185 845.831 597.95 836.093 598.714 826.355 601.391 816.864 605.826 808.161 610.261 799.459 616.368 791.715 623.798 785.374 631.227 779.034 639.834 774.219 649.125 771.207 658.417 768.194 668.211 767.043 677.948 767.818 687.685 768.593 697.173 771.28 705.871 775.725 714.569 780.169 722.305 786.285 728.638 793.722 734.971 801.158 739.776 809.77 742.778 819.065L601.37 864.912z"
        class="colorfff svgShape"></path>
    <path fill="#101014"
        d="M625.876 756.575C615.553 756.578 605.461 753.521 596.876 747.788 588.291 742.056 581.599 733.906 577.646 724.37 573.693 714.834 572.657 704.34 574.669 694.215 576.68 684.089 581.649 674.788 588.948 667.488 596.246 660.187 605.545 655.215 615.669 653.199 625.794 651.184 636.288 652.217 645.826 656.166 655.363 660.116 663.515 666.805 669.251 675.388 674.986 683.971 678.048 694.062 678.048 704.385 678.033 718.219 672.533 731.483 662.752 741.267 652.972 751.051 639.71 756.556 625.876 756.575zM625.876 673.899C619.841 673.895 613.941 675.682 608.922 679.032 603.903 682.383 599.99 687.147 597.679 692.721 595.368 698.296 594.762 704.431 595.939 710.35 597.115 716.269 600.021 721.706 604.288 725.973 608.555 730.24 613.992 733.146 619.911 734.322 625.83 735.499 631.965 734.893 637.54 732.582 643.114 730.271 647.878 726.358 651.229 721.339 654.579 716.32 656.366 710.42 656.362 704.385 656.352 696.303 653.137 688.554 647.422 682.839 641.707 677.123 633.958 673.908 625.876 673.899zM601.372 875.755C599.081 875.756 596.847 875.03 594.993 873.683 593.14 872.336 591.76 870.436 591.054 868.255 587.604 857.615 586.284 846.4 587.169 835.25 588.054 824.1 591.127 813.233 596.211 803.271 606.48 783.15 624.321 767.933 645.81 760.966 667.298 754 690.674 755.855 710.794 766.124 720.757 771.209 729.621 778.206 736.879 786.716 744.138 795.226 749.649 805.082 753.099 815.722 753.538 817.077 753.706 818.506 753.594 819.926 753.481 821.346 753.09 822.73 752.442 823.999 751.794 825.267 750.902 826.396 749.818 827.32 748.734 828.244 747.478 828.946 746.123 829.384L604.716 875.213C603.636 875.568 602.508 875.75 601.372 875.755zM672.031 778.495C662.939 778.503 653.954 780.462 645.684 784.242 637.415 788.022 630.053 793.533 624.098 800.404 618.142 807.274 613.732 815.343 611.164 824.066 608.596 832.788 607.932 841.96 609.215 850.961L728.251 812.379C722.836 802.161 714.743 793.61 704.84 787.641 694.936 781.672 683.594 778.51 672.031 778.495zM974.975 534.244C972.433 534.224 969.978 533.311 968.04 531.665 966.102 530.019 964.804 527.744 964.373 525.238 963.943 522.732 964.407 520.154 965.684 517.955 966.961 515.756 968.971 514.076 971.361 513.209L1128.58 456.393C1129.93 455.862 1131.37 455.606 1132.82 455.641 1134.27 455.677 1135.7 456.002 1137.02 456.599 1138.34 457.196 1139.53 458.051 1140.51 459.115 1141.5 460.179 1142.26 461.43 1142.75 462.793 1143.25 464.156 1143.46 465.605 1143.38 467.052 1143.31 468.5 1142.94 469.918 1142.31 471.221 1141.67 472.525 1140.79 473.689 1139.69 474.643 1138.6 475.597 1137.33 476.323 1135.95 476.777L978.734 533.593C977.532 534.038 976.258 534.259 974.975 534.244zM934.768 639.708C932.242 639.704 929.796 638.818 927.854 637.202 925.911 635.587 924.594 633.344 924.129 630.861 923.664 628.377 924.08 625.81 925.307 623.601 926.534 621.392 928.493 619.681 930.847 618.764L1202.57 513.426C1205.25 512.386 1208.23 512.454 1210.86 513.615 1213.5 514.775 1215.56 516.934 1216.6 519.616 1217.64 522.297 1217.57 525.282 1216.41 527.914 1215.25 530.545 1213.09 532.608 1210.41 533.648L938.69 638.985C937.437 639.462 936.108 639.707 934.768 639.708zM944.4 927.691C920.998 927.691 904.282 912.241 899.439 899.03 898.521 896.35 898.69 893.416 899.907 890.858 901.125 888.3 903.296 886.32 905.956 885.342 908.615 884.364 911.552 884.466 914.137 885.626 916.722 886.786 918.75 888.912 919.787 891.549 922.191 898.109 934.335 910.451 954.755 904.416 967.044 900.801 975.338 895.561 978.718 889.326 981.049 885.025 981.266 879.893 979.386 873.64 979.115 872.737 972.411 851.666 941.184 859.834 908.927 868.291 888.018 852.822 881.549 833.739 879.693 827.794 879.03 821.54 879.597 815.338 880.165 809.136 881.952 803.106 884.856 797.597 887.959 791.687 892.249 786.483 897.458 782.31 902.666 778.136 908.681 775.084 915.125 773.345 928.606 769.369 941.166 769.496 951.484 773.724 956.449 775.67 960.905 778.722 964.513 782.649 968.12 786.576 970.784 791.274 972.303 796.386 973.117 799.144 972.803 802.113 971.429 804.639 970.054 807.166 967.733 809.043 964.975 809.858 963.609 810.261 962.177 810.392 960.761 810.242 959.345 810.092 957.972 809.665 956.721 808.984 954.194 807.61 952.317 805.288 951.502 802.53 950.893 800.536 949.831 798.711 948.398 797.196 946.965 795.682 945.201 794.52 943.244 793.802 939.268 792.157 932.239 790.91 921.269 794.145 917.636 795.089 914.237 796.772 911.283 799.089 908.33 801.405 905.885 804.305 904.102 807.608 900.987 813.521 900.269 820.407 902.096 826.836 905.204 836.088 915.649 844.094 935.618 838.853 973.658 828.896 995.018 850.473 1000.1 867.406 1003.6 879.134 1002.79 890.284 997.711 899.645 991.44 911.229 979.025 919.83 960.827 925.216 955.499 926.825 949.967 927.659 944.4 927.691z"
        class="color101014 svgShape"></path>
    <path fill="#101014"
        d="M962.506 937.125C960.165 937.127 957.886 936.371 956.01 934.97C954.133 933.57 952.761 931.599 952.097 929.354L905.257 770.706C904.442 767.948 904.756 764.979 906.131 762.453C907.505 759.926 909.826 758.049 912.585 757.234C915.343 756.42 918.312 756.734 920.838 758.108C923.365 759.482 925.242 761.804 926.057 764.562L972.843 923.21C973.321 924.826 973.415 926.532 973.118 928.192C972.821 929.851 972.141 931.419 971.133 932.769C970.124 934.12 968.814 935.217 967.307 935.973C965.8 936.729 964.138 937.123 962.452 937.125H962.506Z"
        class="color101014 svgShape"></path>
    <path fill="#ffffff" d="M824.441 1071.76L1162.12 950.371L1192.16 1071.76L871.897 1180.44L824.441 1071.76Z"
        class="colorfff svgShape"></path>
    <path fill="#101014"
        d="M871.898 1191.28C869.788 1191.28 867.723 1190.66 865.958 1189.51C864.192 1188.35 862.802 1186.71 861.958 1184.77L814.503 1076.09C813.908 1074.73 813.6 1073.26 813.596 1071.78C813.592 1070.29 813.893 1068.82 814.481 1067.46C815.069 1066.09 815.931 1064.87 817.014 1063.85C818.096 1062.83 819.376 1062.05 820.774 1061.55L1158.45 940.179C1159.88 939.666 1161.4 939.459 1162.91 939.57C1164.42 939.681 1165.9 940.108 1167.23 940.823C1168.57 941.539 1169.74 942.526 1170.67 943.723C1171.6 944.919 1172.27 946.297 1172.64 947.769L1202.69 1069.14C1203.35 1071.78 1202.99 1074.57 1201.68 1076.95C1200.38 1079.34 1198.22 1081.15 1195.64 1082.02L875.385 1190.7C874.261 1191.08 873.083 1191.27 871.898 1191.28ZM839.116 1078.03L877.933 1166.95L1179.33 1064.69L1154.57 964.647L839.116 1078.03Z"
        class="color101014 svgShape"></path>
    <path fill="#ffffff"
        d="M1637.36 1721.54C1637.36 1721.54 1548.49 1462.65 1500.18 1346.75C1451.88 1230.84 1411.31 1183.87 1368.82 1200.62C1326.34 1217.37 1326.32 1250.14 1326.32 1250.14C1326.32 1250.14 1279.95 1185.88 1243.19 1200.62C1206.43 1215.37 1206.43 1242.42 1206.43 1242.42C1206.43 1242.42 1187.17 1194.12 1132.11 1211.5C1077.04 1228.88 1102.2 1342.9 1102.2 1342.9C1102.2 1342.9 994.531 1029.41 923.745 1065.41C852.96 1101.41 965.779 1401.18 1008.3 1522.61C1057.09 1662.05 1140.85 1827.84 1140.85 1827.84L1637.36 1721.54Z"
        class="colorfff svgShape"></path>
    <path fill="#101014"
        d="M1140.91 1838.65C1138.9 1838.65 1136.93 1838.09 1135.22 1837.04C1133.51 1835.98 1132.13 1834.48 1131.22 1832.68C1130.37 1831.02 1046.65 1664.62 998.127 1526.18C995.055 1517.39 991.621 1507.69 987.899 1497.26C964.406 1430.99 928.896 1330.83 907.933 1244.26C881.061 1133.18 884.531 1073.31 918.885 1055.85C928.914 1050.74 940.263 1050.43 951.648 1055.09C982.839 1067.74 1019.49 1119.84 1060.58 1210C1070.23 1231.16 1079.01 1252.07 1086.51 1270.68C1089.22 1240.45 1099.72 1210.51 1128.94 1201.27C1164.64 1190.01 1189.32 1202.88 1203.69 1218.46C1209.76 1208.81 1220.44 1198.22 1239.25 1190.66C1270.3 1178.07 1303.55 1207.18 1321.62 1227.24C1327.8 1214.86 1340.14 1200.13 1364.83 1190.45C1390.51 1180.38 1415.93 1189.2 1440.4 1216.67C1462.32 1241.28 1485.15 1282.45 1510.18 1342.5C1558.05 1457.41 1646.7 1715.35 1647.52 1717.95C1648.45 1720.67 1648.27 1723.65 1647.01 1726.23C1645.74 1728.82 1643.51 1730.79 1640.79 1731.73C1638.07 1732.66 1635.09 1732.48 1632.5 1731.21C1629.92 1729.95 1627.94 1727.72 1627.01 1725C1626.12 1722.39 1537.7 1465.11 1490.08 1350.92C1430.3 1207.42 1394.45 1202.18 1372.62 1210.71C1338.07 1224.28 1337.02 1249.23 1337 1250.28C1336.97 1252.57 1336.23 1254.78 1334.87 1256.62C1333.51 1258.45 1331.61 1259.81 1329.43 1260.5C1327.25 1261.19 1324.91 1261.18 1322.74 1260.46C1320.58 1259.74 1318.69 1258.35 1317.36 1256.5C1306.51 1241.61 1270.59 1201.25 1247.11 1210.69C1218.99 1221.98 1217.26 1240.79 1217.17 1242.53C1217.22 1245.04 1216.39 1247.49 1214.81 1249.45C1213.23 1251.41 1211.02 1252.75 1208.55 1253.23C1206.03 1253.71 1203.41 1253.3 1201.17 1252.06C1198.92 1250.81 1197.18 1248.82 1196.24 1246.43C1194.63 1242.51 1179 1208.03 1135.27 1221.86C1097.93 1233.64 1106.27 1311.53 1112.63 1340.55C1113.21 1343.24 1112.73 1346.06 1111.31 1348.42C1109.89 1350.79 1107.61 1352.52 1104.96 1353.26C1102.3 1354.01 1099.46 1353.71 1097.02 1352.44C1094.57 1351.17 1092.7 1349.01 1091.79 1346.4C1068.3 1278.17 996.013 1096.39 943.299 1075.08C937.661 1072.8 932.962 1072.8 928.498 1075.08C915.397 1081.75 898.03 1111.91 928.806 1239.08C949.497 1324.61 984.826 1424.13 1008.12 1489.98C1011.84 1500.5 1015.35 1510.22 1018.38 1519.02C1066.42 1656.16 1149.53 1821.28 1150.3 1822.92C1151.14 1824.58 1151.54 1826.42 1151.46 1828.27C1151.39 1830.12 1150.84 1831.92 1149.87 1833.5C1148.9 1835.07 1147.54 1836.38 1145.93 1837.28C1144.31 1838.19 1142.49 1838.66 1140.64 1838.66L1140.91 1838.65Z"
        class="color101014 svgShape"></path>
    <path fill="#101014"
        d="M1219.03 1292.64C1216.73 1292.64 1214.49 1291.91 1212.63 1290.55 1210.77 1289.19 1209.39 1287.28 1208.69 1285.09L1196.15 1245.71C1195.67 1244.34 1195.48 1242.89 1195.57 1241.45 1195.66 1240 1196.04 1238.59 1196.69 1237.29 1197.34 1236 1198.24 1234.84 1199.34 1233.9 1200.44 1232.96 1201.72 1232.25 1203.1 1231.81 1204.48 1231.37 1205.93 1231.21 1207.38 1231.34 1208.82 1231.47 1210.22 1231.89 1211.5 1232.58 1212.78 1233.26 1213.9 1234.19 1214.82 1235.32 1215.73 1236.44 1216.4 1237.74 1216.81 1239.13L1229.46 1278.51C1230.32 1281.25 1230.07 1284.22 1228.75 1286.77 1227.43 1289.32 1225.15 1291.24 1222.41 1292.12 1221.32 1292.47 1220.18 1292.65 1219.03 1292.64zM468.042 885.784C465.713 885.782 463.448 885.03 461.579 883.641 459.711 882.251 458.34 880.297 457.669 878.068L351.464 526.708C350.647 524.005 350.916 521.089 352.216 518.582 353.515 516.074 355.742 514.172 358.421 513.281L390.245 502.692C392.974 501.783 395.953 501.997 398.525 503.284 401.097 504.572 403.053 506.829 403.961 509.559 404.869 512.288 404.656 515.267 403.368 517.839 402.08 520.411 399.823 522.366 397.094 523.275L375.264 530.503 478.433 871.761C479.266 874.512 478.972 877.481 477.617 880.016 476.261 882.55 473.955 884.443 471.204 885.278 470.18 885.597 469.115 885.767 468.042 885.784zM456.566 502.927C453.985 502.934 451.486 502.02 449.518 500.35 447.551 498.679 446.244 496.362 445.832 493.814 445.421 491.265 445.931 488.654 447.273 486.449 448.614 484.244 450.699 482.59 453.151 481.784L479.751 472.947C481.104 472.497 482.532 472.318 483.954 472.42 485.376 472.523 486.764 472.904 488.038 473.542 489.313 474.181 490.449 475.064 491.382 476.142 492.315 477.219 493.027 478.47 493.477 479.823 493.926 481.176 494.105 482.604 494.003 484.026 493.901 485.447 493.52 486.835 492.881 488.11 492.243 489.384 491.359 490.52 490.282 491.454 489.204 492.387 487.953 493.098 486.6 493.548L459.982 502.403C458.879 502.763 457.726 502.94 456.566 502.927zM1611.28 1265.19C1608.79 1265.19 1606.38 1264.33 1604.45 1262.75 1602.51 1261.18 1601.18 1258.99 1600.68 1256.55L1593.59 1222.45C1593.01 1219.64 1593.56 1216.7 1595.14 1214.3 1596.72 1211.89 1599.19 1210.21 1602 1209.63 1604.82 1209.05 1607.75 1209.6 1610.16 1211.18 1612.56 1212.76 1614.24 1215.23 1614.83 1218.04L1621.91 1252.14C1622.2 1253.54 1622.21 1254.98 1621.95 1256.38 1621.68 1257.78 1621.14 1259.11 1620.36 1260.3 1619.58 1261.5 1618.57 1262.52 1617.39 1263.32 1616.21 1264.12 1614.88 1264.68 1613.49 1264.97 1612.76 1265.12 1612.02 1265.19 1611.28 1265.19zM1593.57 1179.98C1591.08 1179.98 1588.67 1179.12 1586.74 1177.55 1584.8 1175.98 1583.47 1173.79 1582.97 1171.35L1532.57 928.486C1532.21 927.07 1532.15 925.597 1532.38 924.156 1532.61 922.715 1533.13 921.335 1533.91 920.099 1534.68 918.863 1535.7 917.797 1536.9 916.964 1538.1 916.131 1539.45 915.549 1540.88 915.252 1542.31 914.955 1543.78 914.949 1545.21 915.236 1546.65 915.522 1548 916.095 1549.21 916.919 1550.41 917.743 1551.44 918.801 1552.22 920.031 1553.01 921.261 1553.54 922.637 1553.78 924.077L1604.2 1166.94C1604.78 1169.75 1604.22 1172.68 1602.65 1175.08 1601.07 1177.48 1598.61 1179.16 1595.8 1179.75 1595.07 1179.91 1594.32 1179.99 1593.57 1179.98zM584.493 1533.42C582.14 1533.42 579.852 1532.65 577.974 1531.23 576.096 1529.81 574.731 1527.82 574.084 1525.56L516.689 1324.59C515.919 1321.83 516.272 1318.88 517.672 1316.38 519.072 1313.88 521.404 1312.03 524.16 1311.25 526.916 1310.46 529.87 1310.8 532.378 1312.19 534.886 1313.57 536.743 1315.89 537.544 1318.65L594.938 1519.6C595.33 1520.97 595.447 1522.4 595.284 1523.82 595.12 1525.23 594.68 1526.6 593.986 1527.85 593.293 1529.09 592.361 1530.19 591.244 1531.08 590.127 1531.96 588.846 1532.62 587.475 1533.01 586.505 1533.29 585.501 1533.43 584.493 1533.42zM713.521 1641.2C711.278 1641.2 709.089 1640.51 707.257 1639.21 705.426 1637.92 704.04 1636.08 703.293 1633.97L676.674 1558.83C676.159 1557.48 675.919 1556.04 675.969 1554.59 676.019 1553.15 676.358 1551.73 676.965 1550.42 677.573 1549.1 678.436 1547.93 679.505 1546.95 680.574 1545.98 681.827 1545.23 683.19 1544.75 684.554 1544.26 685.999 1544.06 687.443 1544.14 688.886 1544.23 690.298 1544.6 691.595 1545.24 692.892 1545.88 694.049 1546.77 694.996 1547.86 695.944 1548.96 696.663 1550.23 697.112 1551.6L720.225 1616.84 877.445 1566.93C878.803 1566.49 880.232 1566.34 881.651 1566.46 883.07 1566.58 884.451 1566.98 885.715 1567.63 886.98 1568.29 888.102 1569.19 889.02 1570.28 889.937 1571.37 890.631 1572.63 891.062 1573.98 891.493 1575.34 891.652 1576.77 891.53 1578.19 891.409 1579.61 891.009 1580.99 890.354 1582.25 889.698 1583.52 888.8 1584.64 887.711 1585.56 886.622 1586.47 885.363 1587.17 884.005 1587.6L716.774 1640.69C715.722 1641.03 714.625 1641.2 713.521 1641.2zM1222.5 188.144C1219.91 188.147 1217.41 187.226 1215.45 185.549 1213.48 183.871 1212.18 181.546 1211.78 178.993 1211.37 176.44 1211.89 173.827 1213.25 171.625 1214.6 169.422 1216.7 167.776 1219.16 166.982L1233.83 162.229C1236.44 161.683 1239.17 162.121 1241.48 163.459 1243.79 164.796 1245.53 166.94 1246.36 169.48 1247.18 172.019 1247.05 174.774 1245.97 177.218 1244.89 179.662 1242.95 181.622 1240.52 182.722L1225.84 187.547C1224.77 187.92 1223.64 188.122 1222.5 188.144zM1008.3 257.447C1005.72 257.45 1003.21 256.53 1001.25 254.852 999.283 253.174 997.981 250.849 997.577 248.296 997.174 245.743 997.696 243.13 999.049 240.928 1000.4 238.726 1002.5 237.079 1004.96 236.285L1176.74 180.644C1179.48 179.757 1182.46 179.994 1185.02 181.302 1187.58 182.61 1189.52 184.883 1190.4 187.62 1191.29 190.356 1191.05 193.333 1189.75 195.895 1188.44 198.457 1186.17 200.395 1183.43 201.281L1011.64 256.923C1010.56 257.271 1009.44 257.448 1008.3 257.447z"
        class="color101014 svgShape"></path>
</svg>